<?xml version="1.0" standalone="no"?>
<!DOCTYPE svg PUBLIC "-//W3C//DTD SVG 20010904//EN"
 "http://www.w3.org/TR/2001/REC-SVG-20010904/DTD/svg10.dtd">
<svg version="1.0" xmlns="http://www.w3.org/2000/svg"
 width="1008.000000pt" height="1008.000000pt" viewBox="0 0 1008.000000 1008.000000"
 preserveAspectRatio="xMidYMid meet">
<metadata>
Created by potrace 1.14, written by Peter Selinger 2001-2017
</metadata>
<g transform="translate(0.000000,1008.000000) scale(0.100000,-0.100000)"
fill="#000000" stroke="none">
<path d="M260 5040 l0 -5040 1228 2 1227 3 0 735 0 735 188 0 c159 0 188 2
192 15 2 8 4 505 4 1105 0 600 0 1117 0 1151 l1 60 100 -1 c88 -1 102 -3 114
-20 13 -19 139 -246 214 -385 19 -36 41 -76 50 -89 8 -14 32 -57 52 -95 21
-39 49 -91 64 -116 14 -25 36 -65 49 -90 13 -25 35 -65 49 -90 14 -25 40 -72
58 -105 18 -33 44 -80 58 -105 14 -25 43 -79 65 -120 22 -41 47 -83 55 -92 8
-10 12 -18 8 -18 -4 0 1 -12 12 -28 10 -15 40 -67 67 -117 26 -49 51 -94 55
-100 4 -5 25 -44 47 -85 22 -41 49 -91 60 -110 37 -65 96 -175 107 -197 6 -13
14 -23 19 -23 4 0 7 -9 7 -20 0 -11 4 -20 9 -20 5 0 12 -11 15 -25 4 -14 11
-25 16 -25 6 0 10 -7 10 -15 0 -9 11 -32 24 -53 13 -20 67 -118 121 -217 54
-99 124 -226 156 -282 31 -55 60 -110 64 -122 3 -12 11 -21 16 -21 5 0 9 -9 9
-20 0 -11 5 -20 10 -20 6 0 10 -6 10 -14 0 -8 7 -22 16 -30 8 -9 12 -16 8 -16
-4 0 -1 -8 7 -17 8 -10 24 -36 34 -58 11 -22 22 -42 25 -45 3 -3 15 -25 28
-50 13 -25 31 -59 41 -76 30 -50 93 -166 110 -201 8 -18 19 -33 23 -33 4 0 8
-6 8 -12 0 -7 16 -39 35 -70 19 -32 31 -58 27 -58 -4 0 -2 -4 3 -8 6 -4 20
-25 32 -47 26 -49 48 -89 97 -177 l38 -68 1384 0 1384 0 -26 48 c-14 26 -42
74 -61 107 -19 33 -43 74 -53 90 -96 165 -125 214 -140 240 -9 17 -37 64 -61
105 -24 41 -53 92 -64 113 -11 20 -23 37 -27 37 -5 0 -8 4 -8 9 0 5 -23 49
-51 98 -28 48 -60 104 -71 123 -11 19 -42 72 -69 116 -27 45 -49 85 -49 90 0
4 -6 15 -14 23 -7 9 -25 36 -38 61 -76 136 -112 196 -122 202 -13 9 -9 10 43
12 22 0 42 4 46 8 4 3 -10 32 -30 64 -20 31 -41 66 -46 78 -5 12 -18 35 -29
51 -11 17 -28 46 -39 65 -11 19 -29 51 -41 70 -11 19 -23 43 -26 52 -4 10 -10
18 -15 18 -5 0 -9 7 -9 15 0 8 -4 15 -10 15 -5 0 -10 6 -10 13 0 7 -21 46 -46
86 -25 40 -50 83 -55 95 -5 11 -18 35 -29 51 -11 17 -23 37 -27 45 -3 8 -16
31 -28 50 -12 19 -60 100 -106 180 -46 79 -89 154 -96 165 -7 11 -15 27 -19
35 -4 8 -26 45 -50 82 -23 36 -40 68 -38 71 2 2 -2 10 -11 17 -8 7 -15 19 -15
26 0 8 -4 14 -10 14 -5 0 -10 5 -10 10 0 6 -18 40 -40 76 -22 36 -40 68 -40
71 0 2 -13 23 -28 46 -15 23 -34 56 -42 72 -8 17 -26 46 -39 65 -12 19 -27 44
-32 55 -5 11 -13 27 -19 35 -17 26 -121 206 -168 290 -13 25 -30 52 -37 60 -6
8 -15 22 -18 30 -4 8 -20 38 -37 65 -17 28 -33 58 -37 67 -3 10 -9 18 -14 18
-5 0 -9 5 -9 11 0 12 -80 151 -92 159 -4 3 -9 17 -10 30 -3 20 4 26 47 40 28
9 57 19 65 23 8 4 53 20 100 37 46 17 90 36 97 42 7 6 13 7 13 4 0 -4 12 0 28
8 60 33 187 91 195 88 4 -1 7 2 7 6 0 5 16 14 35 22 19 8 35 18 35 24 0 5 3 7
6 3 4 -3 23 5 43 18 19 14 41 25 47 25 7 0 14 4 16 8 2 4 38 29 81 55 43 26
83 52 90 57 7 5 64 49 127 97 140 107 370 334 470 463 77 101 201 286 241 359
63 116 99 186 108 210 6 14 15 33 20 41 17 26 98 234 107 273 1 4 3 10 4 15 1
4 2 10 1 15 0 4 3 7 7 7 5 0 9 6 9 13 0 6 14 62 30 122 47 170 45 160 68 320
2 11 4 20 5 20 1 0 3 14 5 30 1 17 6 57 10 90 4 33 8 74 9 90 1 17 5 36 9 43
5 7 4 12 -3 12 -6 0 -8 5 -4 12 10 16 12 385 3 421 -5 16 -4 27 2 27 6 0 7 6
2 13 -4 6 -8 26 -9 42 -2 36 -13 148 -20 190 -2 17 -6 46 -9 65 -5 39 -12 83
-21 120 -3 14 -8 39 -11 55 -2 17 -14 64 -25 105 -29 111 -30 113 -31 133 -1
9 -4 17 -8 17 -4 0 -10 17 -14 38 -4 20 -10 42 -14 47 -4 6 -14 30 -21 55 -15
48 -53 143 -91 225 -12 28 -23 52 -24 55 -3 13 -40 86 -46 90 -3 3 -10 16 -14
29 -18 58 -228 381 -247 381 -5 0 -7 4 -4 8 3 5 -5 19 -17 33 -12 13 -49 56
-82 94 -58 68 -217 229 -266 270 -13 11 -49 40 -79 65 -30 25 -56 48 -58 53
-2 4 -9 7 -17 7 -7 0 -18 7 -26 16 -11 13 -92 72 -137 99 -9 6 -19 12 -22 15
-12 12 -161 100 -170 100 -6 0 -10 5 -10 11 0 5 -4 8 -9 5 -5 -4 -11 -3 -13 2
-1 4 -21 17 -43 28 -22 11 -74 38 -115 59 -41 21 -78 40 -82 41 -5 1 -10 3
-13 4 -3 1 -8 3 -12 4 -5 1 -17 7 -29 13 -48 27 -328 132 -369 139 -11 2 -40
10 -65 19 -43 16 -259 72 -310 81 -14 3 -32 7 -40 9 -21 6 -80 17 -110 20 -14
2 -25 4 -25 5 0 2 -13 4 -30 5 -16 2 -30 4 -30 5 0 2 -33 7 -175 25 -14 2 -25
4 -25 5 0 1 -20 3 -45 5 -91 6 -196 16 -235 22 -22 3 -1056 8 -2297 10 l-2258
4 0 -5041z m3293 2795 c152 0 277 4 277 8 0 5 5 5 11 1 17 -10 219 -11 219 -1
0 5 5 5 11 1 7 -4 102 -8 213 -9 111 -2 215 -5 231 -8 17 -3 50 -9 75 -12 137
-22 289 -76 377 -135 24 -17 46 -30 49 -30 9 0 80 -66 136 -128 101 -110 195
-320 202 -452 1 -20 5 -40 8 -45 7 -13 3 -315 -6 -377 -3 -26 -10 -58 -15 -71
-6 -14 -7 -27 -4 -30 3 -3 1 -12 -3 -19 -5 -7 -9 -19 -10 -25 -1 -7 -15 -46
-30 -85 -53 -140 -135 -252 -259 -356 -28 -23 -171 -105 -190 -109 -5 -1 -34
-11 -63 -22 -30 -11 -77 -25 -105 -31 -29 -5 -63 -13 -77 -15 -80 -17 -210
-20 -824 -20 l-679 0 1 960 c0 528 1 972 1 986 1 27 1 27 77 25 41 -1 78 2 81
7 3 5 8 5 12 1 3 -5 131 -9 284 -9z"/>
<path d="M8060 9325 c-25 -7 -56 -16 -70 -20 -14 -4 -39 -18 -57 -31 -17 -13
-36 -24 -42 -24 -6 0 -11 -3 -11 -7 0 -5 -17 -26 -38 -48 -21 -22 -51 -67 -67
-100 -26 -54 -29 -71 -29 -160 -1 -84 3 -111 24 -164 47 -122 164 -217 305
-248 32 -7 120 -10 120 -3 0 1 15 3 33 5 18 1 63 17 99 35 99 49 163 118 203
220 24 61 32 169 18 235 -11 51 -52 138 -73 155 -8 7 -15 19 -15 26 0 8 -3 14
-7 14 -5 0 -24 14 -43 30 -44 38 -121 76 -172 86 -50 10 -139 9 -178 -1z"/>
<path d="M8834 8208 c-16 -5 -40 -10 -54 -12 -40 -6 -111 -37 -165 -72 -57
-38 -115 -88 -115 -99 0 -4 -10 -17 -22 -29 -48 -45 -104 -177 -114 -266 -2
-19 -5 -47 -7 -62 -2 -16 -1 -28 2 -28 3 0 6 -20 5 -44 -1 -55 34 -161 78
-233 98 -162 280 -265 468 -266 47 0 99 3 115 7 48 11 60 14 63 16 1 2 5 3 10
4 22 4 102 42 102 49 0 4 5 7 11 7 10 0 87 55 99 71 3 4 21 26 40 49 35 43 89
132 96 160 26 104 31 130 27 130 -3 0 0 6 6 13 6 8 9 16 6 19 -3 2 -7 36 -9
75 -15 234 -193 446 -420 500 -71 17 -181 22 -222 11z"/>
<path d="M9057 6634 c-1 -1 -22 -4 -47 -8 -100 -12 -123 -17 -173 -37 -116
-45 -231 -125 -297 -206 -19 -24 -40 -49 -45 -56 -24 -28 -68 -112 -90 -172
-28 -72 -35 -102 -39 -161 -2 -22 -6 -46 -10 -52 -3 -6 -2 -13 4 -17 6 -4 8
-10 6 -14 -13 -21 -4 -125 16 -189 5 -18 11 -39 13 -45 3 -14 32 -86 44 -107
24 -44 37 -66 49 -78 6 -7 12 -17 12 -21 0 -22 175 -181 199 -181 6 0 11 -4
11 -8 0 -7 105 -60 135 -68 6 -2 37 -11 70 -20 116 -32 348 -19 434 26 9 5 34
16 56 26 55 24 144 85 189 130 49 49 101 114 109 137 4 9 11 17 16 17 5 0 12
14 16 30 4 17 10 30 13 30 6 0 43 104 48 133 1 4 2 8 4 10 7 8 12 55 15 142 4
98 -10 201 -37 270 -17 45 -61 139 -70 150 -61 78 -112 136 -139 159 -19 15
-43 35 -54 44 -62 51 -211 110 -320 128 -37 6 -134 11 -138 8z"/>
<path d="M8220 5019 c-25 -5 -60 -11 -78 -14 -18 -3 -41 -9 -50 -14 -9 -5 -19
-9 -22 -8 -13 1 -93 -29 -165 -63 -142 -67 -281 -179 -391 -315 -46 -56 -134
-203 -134 -222 0 -7 -4 -13 -10 -13 -5 0 -9 -3 -9 -7 1 -5 0 -11 -1 -15 -1 -5
-3 -11 -5 -15 -1 -5 -5 -17 -9 -28 -18 -46 -34 -101 -42 -145 -2 -8 -6 -31
-10 -50 -20 -99 -19 -302 1 -390 4 -14 9 -38 11 -54 9 -49 65 -201 78 -208 6
-4 7 -8 3 -8 -4 0 4 -21 19 -47 136 -246 337 -423 592 -522 28 -12 52 -18 52
-15 0 4 6 2 13 -3 11 -10 48 -21 92 -28 11 -2 36 -7 55 -10 19 -4 89 -8 155
-10 107 -3 161 1 245 19 14 3 39 8 55 11 41 8 217 75 235 90 8 6 23 15 34 19
25 9 135 86 168 117 14 14 39 37 55 50 68 58 213 253 213 286 0 7 4 13 10 13
5 0 13 12 16 28 4 15 10 32 14 37 7 10 44 112 46 130 1 6 3 13 4 18 1 4 4 12
5 17 1 6 3 11 5 13 9 11 33 216 31 272 -2 70 -21 207 -31 235 -1 3 -2 9 -1 13
2 13 -48 155 -74 207 -125 259 -333 457 -587 559 -31 13 -58 22 -60 20 -2 -1
-13 3 -26 10 -26 14 -30 15 -152 36 -88 16 -270 18 -350 4z"/>
</g>
</svg>
